<svg width="840" height="840" viewBox="0 0 840 840" fill="none" xmlns="http://www.w3.org/2000/svg">
<g opacity="0.45">
<path d="M840 420C840 532.182 796.33 637.658 716.946 716.972C637.644 796.286 532.157 840 419.959 840C307.76 840 202.273 796.286 122.971 716.972C43.6697 637.658 -1.34551e-05 532.182 -1.83588e-05 420C-2.32624e-05 307.818 43.6697 202.425 123.054 123.028C202.356 43.7137 307.843 -2.44235e-05 420.041 -2.93278e-05C532.24 -3.42322e-05 637.644 43.7137 716.946 123.028C796.33 202.425 840 307.818 840 420ZM3.23171 420C3.23171 531.271 46.57 635.92 125.291 714.654C204.013 793.389 308.671 836.771 419.959 836.771C531.246 836.771 635.904 793.388 714.626 714.737C793.347 636.002 836.685 531.354 836.685 420.083C836.685 308.811 793.347 204.163 714.626 125.429C635.904 46.6942 531.246 3.39437 419.958 3.39438C308.671 3.39438 204.013 46.777 125.291 125.429C46.57 204.08 3.2317 308.729 3.23171 420Z" fill="url(#paint0_linear_336_160)"/>
<path d="M818.95 419.999C818.951 526.551 777.435 626.729 702.111 702.069C626.787 777.409 526.521 818.887 419.957 818.887C313.393 818.887 213.209 777.409 137.802 702.069C62.4781 626.729 20.9629 526.551 20.9629 419.999C20.9629 313.447 62.4781 213.269 137.885 137.929C213.209 62.5891 313.475 21.1107 420.04 21.1107C526.604 21.1107 626.787 62.5891 702.111 137.929C777.435 213.269 818.95 313.447 818.95 419.999ZM24.2775 419.999C24.2775 525.723 65.4613 625.073 140.205 699.833C214.949 774.594 314.304 815.741 420.04 815.741C525.775 815.741 625.13 774.594 699.874 699.833C774.618 625.073 815.802 525.723 815.802 419.999C815.802 314.274 774.618 214.925 699.874 140.164C625.13 65.404 525.775 24.2568 420.04 24.2568C314.304 24.2568 214.949 65.4041 140.205 140.164C65.4612 214.925 24.2775 314.357 24.2775 419.999Z" fill="url(#paint1_linear_336_160)"/>
<path d="M797.987 419.999C797.987 520.922 758.709 615.883 687.28 687.25C615.85 758.616 520.97 797.941 419.958 797.941C318.946 797.941 224.066 758.616 152.719 687.25C81.3725 615.884 42.0117 521.005 42.0117 419.999C42.0117 318.994 81.2896 224.115 152.719 152.749C224.148 81.3832 319.029 42.0574 419.958 42.0574C520.887 42.0574 615.85 81.3832 687.197 152.749C758.626 224.198 797.987 319.077 797.987 419.999ZM45.2434 419.999C45.2434 520.094 84.1899 614.145 154.956 684.931C225.723 755.718 319.857 794.713 419.958 794.713C520.058 794.713 614.11 755.718 684.959 684.931C755.726 614.228 794.672 520.094 794.672 419.999C794.672 319.905 755.726 225.854 684.959 155.067C614.193 84.2809 520.058 45.2862 419.958 45.2862C319.857 45.2862 225.806 84.2809 154.956 155.067C84.2727 225.854 45.2434 319.905 45.2434 419.999Z" fill="url(#paint2_linear_336_160)"/>
<path d="M776.941 420C776.941 515.376 739.818 604.956 672.366 672.431C604.997 739.823 515.337 776.996 419.96 776.996C324.583 776.996 235.006 739.906 167.554 672.431C100.102 605.039 62.9785 515.376 62.9785 420C62.9785 324.625 100.102 235.044 167.554 167.57C235.006 100.178 324.582 63.0043 419.96 63.0043C515.337 63.0043 604.914 100.095 672.366 167.57C739.818 235.044 776.941 324.707 776.941 420ZM66.2931 420C66.2931 514.465 103.085 603.3 169.874 670.113C236.663 736.925 325.494 773.684 419.96 773.684C514.426 773.684 603.257 736.925 670.046 670.112C736.835 603.3 773.627 514.465 773.627 420C773.627 325.535 736.835 236.7 670.046 169.888C603.257 103.158 514.508 66.316 419.96 66.316C325.494 66.316 236.663 103.075 169.874 169.888C103.085 236.7 66.2931 325.535 66.2931 420Z" fill="url(#paint3_linear_336_160)"/>
<path d="M755.973 419.999C755.973 605.203 605.242 755.883 420.039 755.883C234.836 755.883 84.1055 605.203 84.1055 419.999C84.1054 234.795 234.754 84.1145 419.956 84.1145C605.159 84.1145 755.973 234.795 755.973 419.999ZM87.3372 419.999C87.3372 603.464 236.577 752.654 420.039 752.654C603.502 752.654 752.741 603.381 752.741 419.999C752.741 236.616 603.502 87.3434 420.039 87.3434C236.577 87.3434 87.3372 236.616 87.3372 419.999Z" fill="url(#paint4_linear_336_160)"/>
<path d="M734.926 420C734.926 593.613 593.642 734.938 419.957 734.938C246.273 734.938 104.988 593.696 104.988 420C104.988 246.304 246.273 105.062 419.957 105.062C593.642 105.062 734.926 246.386 734.926 420ZM108.303 420C108.303 591.874 248.096 731.626 419.957 731.626C591.819 731.626 731.694 591.874 731.694 420C731.694 248.125 591.902 108.373 420.04 108.373C248.179 108.373 108.303 248.208 108.303 420Z" fill="url(#paint5_linear_336_160)"/>
<path d="M713.878 419.999C713.878 582.021 582.04 713.908 419.956 713.908C257.873 713.908 126.035 582.104 126.035 419.999C126.035 257.976 257.873 126.09 419.956 126.09C582.04 126.09 713.878 257.976 713.878 419.999ZM129.35 419.999C129.35 580.283 259.779 710.679 420.039 710.679C580.3 710.679 710.729 580.283 710.729 419.999C710.729 259.715 580.3 129.319 420.039 129.319C259.779 129.319 129.35 259.798 129.35 419.999Z" fill="url(#paint6_linear_336_160)"/>
<path d="M692.916 419.999C692.916 570.431 570.525 692.879 420.042 692.879C269.559 692.879 147.168 570.431 147.168 419.999C147.168 269.567 269.559 147.118 420.042 147.118C570.525 147.118 692.916 269.567 692.916 419.999ZM150.317 419.999C150.317 568.692 271.3 689.65 419.959 689.65C568.619 689.65 689.602 568.692 689.602 419.999C689.602 271.305 568.619 150.347 419.959 150.347C271.3 150.347 150.317 271.388 150.317 419.999Z" fill="url(#paint7_linear_336_160)"/>
<path d="M671.865 419.998C671.865 558.922 558.838 671.85 419.956 671.85C281.075 671.85 168.047 558.839 168.047 419.998C168.047 281.157 281.075 168.147 419.956 168.147C558.838 168.147 671.865 281.157 671.865 419.998ZM171.361 419.998C171.361 557.101 282.898 668.621 419.956 668.621C557.015 668.621 668.634 557.101 668.634 419.998C668.634 282.896 557.097 171.376 419.956 171.376C282.815 171.376 171.361 282.896 171.361 419.998Z" fill="url(#paint8_linear_336_160)"/>
<path d="M650.901 419.998C650.901 547.331 547.32 650.903 420.039 650.903C292.759 650.903 189.178 547.331 189.178 419.998C189.178 292.665 292.759 189.093 420.039 189.093C547.32 189.093 650.901 292.748 650.901 419.998ZM192.327 419.998C192.327 545.51 294.416 647.592 419.956 647.592C545.497 647.592 647.586 545.51 647.586 419.998C647.586 294.486 545.497 192.405 419.956 192.405C294.416 192.405 192.327 294.486 192.327 419.998Z" fill="url(#paint9_linear_336_160)"/>
<path d="M629.854 419.999C629.854 535.741 535.72 629.875 419.957 629.875C304.278 629.875 210.061 535.741 210.061 419.999C210.061 304.257 304.195 210.123 419.957 210.123C535.72 210.206 629.854 304.339 629.854 419.999ZM213.375 419.999C213.375 533.92 306.101 626.564 419.957 626.564C533.814 626.563 626.539 533.92 626.539 419.999C626.539 306.078 533.814 213.434 419.957 213.434C306.101 213.434 213.375 306.078 213.375 419.999Z" fill="url(#paint10_linear_336_160)"/>
<path d="M608.806 419.998C608.806 524.149 524.118 608.845 419.957 608.845C315.795 608.845 231.107 524.149 231.107 419.998C231.107 315.846 315.795 231.15 419.957 231.15C524.118 231.15 608.806 315.929 608.806 419.998ZM234.422 419.998C234.422 522.328 317.701 605.616 420.039 605.616C522.378 605.616 605.657 522.328 605.657 419.998C605.657 317.667 522.378 234.379 420.039 234.379C317.701 234.379 234.422 317.667 234.422 419.998Z" fill="url(#paint11_linear_336_160)"/>
<path d="M587.841 419.998C587.841 512.559 512.517 587.816 420.04 587.816C327.48 587.816 252.238 512.559 252.238 419.998C252.155 327.52 327.48 252.18 419.957 252.18C512.517 252.18 587.841 327.52 587.841 419.998ZM255.387 419.998C255.387 510.737 329.22 584.587 419.957 584.587C510.694 584.587 584.527 510.737 584.527 419.998C584.527 329.258 510.694 255.409 419.957 255.409C329.22 255.409 255.387 329.258 255.387 419.998Z" fill="url(#paint12_linear_336_160)"/>
<path d="M566.792 419.998C566.792 500.968 500.915 566.788 419.956 566.788C338.997 566.788 273.119 500.886 273.119 419.998C273.119 339.111 338.997 273.209 419.956 273.209C500.915 273.209 566.792 339.111 566.792 419.998ZM276.434 419.998C276.434 499.147 340.82 563.559 420.039 563.559C499.175 563.559 563.643 499.147 563.643 419.998C563.643 340.85 499.257 276.438 420.039 276.438C340.82 276.438 276.434 340.85 276.434 419.998Z" fill="url(#paint13_linear_336_160)"/>
<path d="M545.832 420.001C545.832 489.38 489.401 545.844 420.043 545.844C350.685 545.844 294.254 489.38 294.254 420.001C294.254 350.622 350.685 294.158 420.043 294.158C489.401 294.241 545.832 350.622 545.832 420.001ZM297.403 420.001C297.403 487.559 352.342 542.532 419.96 542.532C487.578 542.532 542.517 487.559 542.517 420.001C542.517 352.443 487.578 297.47 419.96 297.47C352.425 297.47 297.403 352.443 297.403 420.001Z" fill="url(#paint14_linear_336_160)"/>
<path d="M524.779 419.998C524.779 477.787 477.795 524.812 419.955 524.812C362.198 524.812 315.131 477.787 315.131 419.998C315.131 362.21 362.115 315.185 419.955 315.185C477.795 315.267 524.779 362.21 524.779 419.998ZM318.445 419.998C318.445 475.965 364.021 521.501 419.955 521.501C475.972 521.501 521.464 475.965 521.464 419.998C521.464 364.031 475.889 318.496 419.955 318.496C364.021 318.496 318.445 364.031 318.445 419.998Z" fill="url(#paint15_linear_336_160)"/>
<path d="M503.816 419.999C503.816 466.197 466.196 503.784 420.04 503.784C373.801 503.784 336.264 466.197 336.264 419.999C336.264 373.802 373.884 336.215 420.04 336.215C466.196 336.215 503.816 373.802 503.816 419.999ZM339.495 419.999C339.495 464.376 375.624 500.555 420.04 500.555C464.456 500.555 500.585 464.458 500.585 419.999C500.585 375.623 464.456 339.443 420.04 339.443C375.624 339.526 339.495 375.623 339.495 419.999Z" fill="url(#paint16_linear_336_160)"/>
<path d="M482.77 420C482.77 454.606 454.596 482.755 419.958 482.755C385.321 482.755 357.146 454.606 357.146 420C357.146 385.393 385.321 357.244 419.958 357.244C454.596 357.244 482.77 385.393 482.77 420ZM360.461 420C360.461 452.785 387.144 479.527 419.958 479.527C452.773 479.527 479.455 452.868 479.455 420C479.455 387.214 452.773 360.473 419.958 360.473C387.144 360.473 360.461 387.214 360.461 420Z" fill="url(#paint17_linear_336_160)"/>
<path d="M461.72 420C461.72 443.016 442.993 461.727 419.957 461.727C396.921 461.727 378.193 443.016 378.193 420C378.193 396.984 396.921 378.273 419.957 378.273C442.993 378.273 461.72 396.984 461.72 420ZM381.508 420C381.508 441.195 398.744 458.498 420.04 458.498C441.253 458.498 458.572 441.195 458.572 420C458.572 398.806 441.336 381.502 420.04 381.502C398.744 381.502 381.508 398.806 381.508 420Z" fill="url(#paint18_linear_336_160)"/>
</g>
<defs>
<linearGradient id="paint0_linear_336_160" x1="315.879" y1="501.657" x2="405.48" y2="421.624" gradientUnits="userSpaceOnUse">
<stop stop-color="#D8AE5E" stop-opacity="0.75"/>
<stop offset="0.195" stop-color="#F2D7A5" stop-opacity="0.5"/>
<stop offset="1" stop-color="#F2D7A5" stop-opacity="0.05"/>
</linearGradient>
<linearGradient id="paint1_linear_336_160" x1="321.043" y1="497.551" x2="406.143" y2="421.519" gradientUnits="userSpaceOnUse">
<stop stop-color="#D8AE5E" stop-opacity="0.75"/>
<stop offset="0.195" stop-color="#F2D7A5" stop-opacity="0.5"/>
<stop offset="1" stop-color="#F2D7A5" stop-opacity="0.05"/>
</linearGradient>
<linearGradient id="paint2_linear_336_160" x1="326.294" y1="493.48" x2="406.923" y2="421.452" gradientUnits="userSpaceOnUse">
<stop stop-color="#D8AE5E" stop-opacity="0.75"/>
<stop offset="0.195" stop-color="#F2D7A5" stop-opacity="0.5"/>
<stop offset="1" stop-color="#F2D7A5" stop-opacity="0.05"/>
</linearGradient>
<linearGradient id="paint3_linear_336_160" x1="331.462" y1="489.408" x2="407.621" y2="421.384" gradientUnits="userSpaceOnUse">
<stop stop-color="#D8AE5E" stop-opacity="0.75"/>
<stop offset="0.195" stop-color="#F2D7A5" stop-opacity="0.5"/>
<stop offset="1" stop-color="#F2D7A5" stop-opacity="0.05"/>
</linearGradient>
<linearGradient id="paint4_linear_336_160" x1="336.759" y1="485.302" x2="408.416" y2="421.287" gradientUnits="userSpaceOnUse">
<stop stop-color="#D8AE5E" stop-opacity="0.75"/>
<stop offset="0.195" stop-color="#F2D7A5" stop-opacity="0.5"/>
<stop offset="1" stop-color="#F2D7A5" stop-opacity="0.05"/>
</linearGradient>
<linearGradient id="paint5_linear_336_160" x1="341.874" y1="481.231" x2="409.062" y2="421.211" gradientUnits="userSpaceOnUse">
<stop stop-color="#D8AE5E" stop-opacity="0.75"/>
<stop offset="0.195" stop-color="#F2D7A5" stop-opacity="0.5"/>
<stop offset="1" stop-color="#F2D7A5" stop-opacity="0.05"/>
</linearGradient>
<linearGradient id="paint6_linear_336_160" x1="347.091" y1="477.141" x2="409.793" y2="421.133" gradientUnits="userSpaceOnUse">
<stop stop-color="#D8AE5E" stop-opacity="0.75"/>
<stop offset="0.195" stop-color="#F2D7A5" stop-opacity="0.5"/>
<stop offset="1" stop-color="#F2D7A5" stop-opacity="0.05"/>
</linearGradient>
<linearGradient id="paint7_linear_336_160" x1="352.395" y1="473.053" x2="410.609" y2="421.055" gradientUnits="userSpaceOnUse">
<stop stop-color="#D8AE5E" stop-opacity="0.75"/>
<stop offset="0.195" stop-color="#F2D7A5" stop-opacity="0.5"/>
<stop offset="1" stop-color="#F2D7A5" stop-opacity="0.05"/>
</linearGradient>
<linearGradient id="paint8_linear_336_160" x1="357.506" y1="468.964" x2="411.236" y2="420.96" gradientUnits="userSpaceOnUse">
<stop stop-color="#D8AE5E" stop-opacity="0.75"/>
<stop offset="0.195" stop-color="#F2D7A5" stop-opacity="0.5"/>
<stop offset="1" stop-color="#F2D7A5" stop-opacity="0.05"/>
</linearGradient>
<linearGradient id="paint9_linear_336_160" x1="362.807" y1="464.891" x2="412.066" y2="420.9" gradientUnits="userSpaceOnUse">
<stop stop-color="#D8AE5E" stop-opacity="0.75"/>
<stop offset="0.195" stop-color="#F2D7A5" stop-opacity="0.5"/>
<stop offset="1" stop-color="#F2D7A5" stop-opacity="0.05"/>
</linearGradient>
<linearGradient id="paint10_linear_336_160" x1="367.922" y1="460.804" x2="412.697" y2="420.806" gradientUnits="userSpaceOnUse">
<stop stop-color="#D8AE5E" stop-opacity="0.75"/>
<stop offset="0.195" stop-color="#F2D7A5" stop-opacity="0.5"/>
<stop offset="1" stop-color="#F2D7A5" stop-opacity="0.05"/>
</linearGradient>
<linearGradient id="paint11_linear_336_160" x1="373.14" y1="456.714" x2="413.427" y2="420.727" gradientUnits="userSpaceOnUse">
<stop stop-color="#D8AE5E" stop-opacity="0.75"/>
<stop offset="0.195" stop-color="#F2D7A5" stop-opacity="0.5"/>
<stop offset="1" stop-color="#F2D7A5" stop-opacity="0.05"/>
</linearGradient>
<linearGradient id="paint12_linear_336_160" x1="378.441" y1="452.625" x2="414.242" y2="420.65" gradientUnits="userSpaceOnUse">
<stop stop-color="#D8AE5E" stop-opacity="0.75"/>
<stop offset="0.195" stop-color="#F2D7A5" stop-opacity="0.5"/>
<stop offset="1" stop-color="#F2D7A5" stop-opacity="0.05"/>
</linearGradient>
<linearGradient id="paint13_linear_336_160" x1="383.554" y1="448.537" x2="414.87" y2="420.556" gradientUnits="userSpaceOnUse">
<stop stop-color="#D8AE5E" stop-opacity="0.75"/>
<stop offset="0.195" stop-color="#F2D7A5" stop-opacity="0.5"/>
<stop offset="1" stop-color="#F2D7A5" stop-opacity="0.05"/>
</linearGradient>
<linearGradient id="paint14_linear_336_160" x1="388.859" y1="444.468" x2="415.704" y2="420.499" gradientUnits="userSpaceOnUse">
<stop stop-color="#D8AE5E" stop-opacity="0.75"/>
<stop offset="0.195" stop-color="#F2D7A5" stop-opacity="0.5"/>
<stop offset="1" stop-color="#F2D7A5" stop-opacity="0.05"/>
</linearGradient>
<linearGradient id="paint15_linear_336_160" x1="393.968" y1="440.377" x2="416.329" y2="420.402" gradientUnits="userSpaceOnUse">
<stop stop-color="#D8AE5E" stop-opacity="0.75"/>
<stop offset="0.195" stop-color="#F2D7A5" stop-opacity="0.5"/>
<stop offset="1" stop-color="#F2D7A5" stop-opacity="0.05"/>
</linearGradient>
<linearGradient id="paint16_linear_336_160" x1="399.271" y1="436.289" x2="417.145" y2="420.325" gradientUnits="userSpaceOnUse">
<stop stop-color="#D8AE5E" stop-opacity="0.75"/>
<stop offset="0.195" stop-color="#F2D7A5" stop-opacity="0.5"/>
<stop offset="1" stop-color="#F2D7A5" stop-opacity="0.05"/>
</linearGradient>
<linearGradient id="paint17_linear_336_160" x1="404.387" y1="432.201" x2="417.776" y2="420.231" gradientUnits="userSpaceOnUse">
<stop stop-color="#D8AE5E" stop-opacity="0.75"/>
<stop offset="0.195" stop-color="#F2D7A5" stop-opacity="0.5"/>
<stop offset="1" stop-color="#F2D7A5" stop-opacity="0.05"/>
</linearGradient>
<linearGradient id="paint18_linear_336_160" x1="409.603" y1="428.113" x2="418.506" y2="420.154" gradientUnits="userSpaceOnUse">
<stop stop-color="#D8AE5E" stop-opacity="0.75"/>
<stop offset="0.195" stop-color="#F2D7A5" stop-opacity="0.5"/>
<stop offset="1" stop-color="#F2D7A5" stop-opacity="0.05"/>
</linearGradient>
</defs>
</svg>
