<svg width="1737" height="1446" viewBox="0 0 1737 1446" fill="none" xmlns="http://www.w3.org/2000/svg">
<g opacity="0.45">
<path d="M1269.65 339.859C1144.89 294.133 1009.8 299.708 889.233 355.667C768.703 411.535 677.089 511.036 631.352 635.82C585.614 760.604 591.225 895.741 647.1 1016.27C702.976 1136.79 802.47 1228.35 927.224 1274.08C1051.98 1319.81 1186.98 1314.2 1307.64 1258.27C1428.17 1202.41 1519.78 1102.9 1565.52 978.121C1611.26 853.337 1605.61 718.291 1549.74 597.765C1493.8 477.113 1394.4 385.586 1269.65 339.859ZM928.541 1270.49C804.8 1225.13 706.091 1134.28 650.624 1014.63C595.157 894.987 589.576 760.906 634.942 637.136C680.308 513.366 771.216 414.651 890.773 359.159C1010.42 303.7 1144.46 298.157 1268.21 343.512C1391.95 388.867 1490.66 479.723 1546.12 599.367C1601.59 719.012 1607.08 853.059 1561.71 976.829C1516.35 1100.6 1425.44 1199.31 1305.88 1254.81C1186.33 1310.3 1052.28 1315.84 928.541 1270.49Z" fill="url(#paint0_linear_415_10)"/>
<path d="M1205.46 342.89C1086.97 299.458 958.644 304.797 844.155 357.86C729.666 410.924 642.666 505.53 599.225 624.047C555.785 742.565 561.072 870.893 614.115 985.467C667.193 1099.95 761.673 1186.96 880.166 1230.39C998.659 1273.82 1126.99 1268.48 1241.51 1215.32C1356 1162.26 1443 1067.65 1486.44 949.137C1529.88 830.62 1524.59 702.292 1471.52 587.81C1418.44 473.327 1323.96 386.322 1205.46 342.89ZM881.517 1226.7C763.945 1183.61 670.25 1097.31 617.581 983.706C564.911 870.105 559.655 742.833 602.758 625.238C645.861 507.642 732.121 413.915 845.729 361.26C959.337 308.605 1086.61 303.298 1204.18 346.392C1321.75 389.486 1415.45 475.786 1468.12 589.387C1520.79 702.988 1526.04 830.259 1482.94 947.855C1439.84 1065.45 1353.58 1159.18 1239.97 1211.83C1126.36 1264.49 998.998 1269.76 881.517 1226.7Z" fill="url(#paint1_linear_415_10)"/>
<path d="M1141.31 345.825C1029.08 304.688 907.467 309.664 798.985 360.016C690.503 410.368 608.092 499.861 566.915 612.204C525.737 724.547 530.793 846.099 581.072 954.538C631.352 1062.98 720.818 1145.43 833.142 1186.6C945.467 1227.77 1066.99 1222.76 1175.47 1172.41C1283.95 1122.05 1366.36 1032.56 1407.51 920.31C1448.65 808.06 1443.63 686.415 1393.35 577.976C1343.01 469.411 1253.55 386.962 1141.31 345.825ZM834.46 1183C723.148 1142.2 634.433 1060.55 584.562 952.994C534.691 845.437 529.7 724.849 570.505 613.52C611.311 502.191 693.016 413.485 800.617 363.542C908.092 313.657 1028.65 308.712 1139.96 349.511C1251.27 390.311 1339.99 471.962 1389.86 579.52C1439.73 687.077 1444.72 807.665 1403.92 918.994C1363.11 1030.32 1281.41 1119.03 1173.81 1168.97C1066.27 1218.73 945.771 1223.8 834.46 1183Z" fill="url(#paint2_linear_415_10)"/>
<path d="M1077.13 348.852C971.069 309.975 856.316 314.749 753.783 362.264C651.376 409.72 573.487 494.284 534.607 600.36C495.726 706.436 500.458 821.178 547.997 923.7C595.445 1026.19 680.023 1104.02 786.087 1142.9C892.151 1181.77 1006.9 1177 1109.44 1129.49C1211.88 1081.94 1289.73 997.466 1328.61 891.39C1367.49 785.315 1362.76 670.572 1315.22 568.05C1267.68 465.529 1183.1 387.694 1077.13 348.852ZM787.438 1139.21C682.387 1100.71 598.595 1023.58 551.521 922.064C504.448 820.55 499.781 706.772 538.29 601.71C576.798 496.648 653.889 412.836 755.415 365.789C856.942 318.742 970.73 314.033 1075.78 352.538C1180.83 391.043 1264.62 468.172 1311.7 569.686C1358.68 671.166 1363.47 784.886 1324.93 890.04C1286.42 995.102 1209.33 1078.91 1107.8 1125.96C1006.28 1173.01 892.489 1177.72 787.438 1139.21Z" fill="url(#paint3_linear_415_10)"/>
<path d="M1012.98 351.79C807.024 276.299 578.013 382.519 502.515 588.495C427.017 794.472 533.138 1023.53 739.098 1099.02C945.057 1174.51 1174.03 1068.38 1249.53 862.407C1325.03 656.431 1218.94 427.282 1012.98 351.79ZM740.415 1095.43C536.389 1020.64 431.318 793.853 506.106 589.812C580.894 385.77 807.732 280.636 1011.67 355.385C1215.6 430.133 1320.76 656.958 1245.98 860.999C1171.19 1065.04 944.349 1170.17 740.415 1095.43Z" fill="url(#paint4_linear_415_10)"/>
<path d="M948.798 354.817C755.729 284.05 540.972 383.577 470.17 576.743C399.368 769.91 498.844 984.614 692.005 1055.41C885.167 1126.21 1099.83 1026.65 1170.63 833.487C1241.44 640.321 1141.87 425.583 948.798 354.817ZM693.356 1051.73C502.22 981.67 403.794 769.232 473.853 578.093C543.912 386.954 756.345 288.353 947.481 358.411C1138.62 428.469 1237.04 640.906 1166.98 832.045C1096.93 1023.18 884.4 1121.75 693.356 1051.73Z" fill="url(#paint5_linear_415_10)"/>
<path d="M884.616 357.846C704.436 291.804 504.026 384.672 437.953 564.936C371.88 745.2 464.711 945.551 644.983 1011.63C825.163 1077.67 1025.57 984.801 1091.65 804.537C1157.72 624.273 1064.8 423.888 884.616 357.846ZM646.334 1007.94C468.088 942.607 376.248 744.397 441.578 566.16C506.908 387.923 705.086 296.015 883.332 361.348C1061.58 426.682 1153.42 624.892 1088.09 803.129C1022.76 981.365 824.488 1073.24 646.334 1007.94Z" fill="url(#paint6_linear_415_10)"/>
<path d="M820.467 360.78C653.177 299.462 467.114 385.671 405.77 553.033C344.426 720.395 430.704 906.426 597.994 967.744C765.285 1029.06 951.348 942.853 1012.69 775.491C1074.04 608.129 987.758 422.098 820.467 360.78ZM599.278 964.242C433.921 903.633 348.726 719.776 409.327 554.441C469.928 389.107 653.759 303.857 819.116 364.466C984.473 425.075 1069.67 608.932 1009.07 774.267C948.467 939.602 764.543 1024.82 599.278 964.242Z" fill="url(#paint7_linear_415_10)"/>
<path d="M756.284 363.809C601.792 307.183 430.133 386.858 373.518 541.318C316.904 695.778 396.503 867.548 550.904 924.141C705.304 980.734 877.054 901.092 933.669 746.632C990.284 592.173 910.685 420.403 756.284 363.809ZM552.255 920.454C399.788 864.57 321.238 695.066 377.109 542.634C432.981 390.202 602.5 311.519 754.967 367.404C907.434 423.288 985.984 592.792 930.079 745.316C874.173 897.841 704.722 976.339 552.255 920.454Z" fill="url(#paint8_linear_415_10)"/>
<path d="M692.135 366.748C550.532 314.845 393.129 387.828 341.243 529.386C289.357 670.943 362.312 828.36 503.915 880.262C645.517 932.164 802.921 859.182 854.807 717.624C906.692 576.067 833.646 418.616 692.135 366.748ZM505.198 876.76C365.621 825.6 293.716 670.45 344.892 530.827C396.068 391.205 551.207 319.274 690.784 370.434C830.361 421.594 902.266 576.745 851.09 716.367C799.914 855.989 644.776 927.92 505.198 876.76Z" fill="url(#paint9_linear_415_10)"/>
<path d="M627.95 369.772C499.237 322.594 356.18 388.918 308.99 517.665C261.833 646.32 328.109 789.476 456.822 836.653C585.535 883.831 728.592 817.508 775.782 688.761C822.88 559.98 756.571 416.916 627.95 369.772ZM458.173 832.967C331.485 786.532 266.259 645.642 312.673 519.015C359.086 392.387 499.911 327.023 626.599 373.459C753.286 419.894 818.513 560.783 772.099 687.411C725.686 814.038 584.861 879.402 458.173 832.967Z" fill="url(#paint10_linear_415_10)"/>
<path d="M563.707 372.97C447.884 330.517 319.174 390.181 276.713 506.026C234.251 621.871 293.916 750.581 409.739 793.034C525.562 835.488 654.272 775.823 696.734 659.978C739.195 544.134 679.438 415.39 563.707 372.97ZM411.09 789.348C297.292 747.637 238.619 621.068 280.337 507.25C322.055 393.433 448.625 334.761 562.423 376.472C676.221 418.183 734.895 544.753 693.177 658.57C651.459 772.387 524.888 831.059 411.09 789.348Z" fill="url(#paint11_linear_415_10)"/>
<path d="M499.556 375.905C396.622 338.177 282.225 391.274 244.527 494.124C206.795 597.067 259.814 711.424 362.748 749.152C465.556 786.94 580.045 733.876 617.743 631.025C655.475 528.083 602.397 413.6 499.556 375.905ZM364.032 745.65C263.123 708.664 211.095 596.448 248.084 495.533C285.073 394.618 397.296 342.605 498.205 379.592C599.113 416.578 651.141 528.794 614.152 629.709C577.163 730.624 464.94 782.637 364.032 745.65Z" fill="url(#paint12_linear_415_10)"/>
<path d="M435.372 378.934C345.329 345.929 245.278 392.368 212.276 482.408C179.273 572.448 225.705 672.577 315.657 705.548C405.609 738.518 505.751 692.114 538.754 602.074C571.757 512.033 525.324 411.904 435.372 378.934ZM317.008 701.861C228.99 669.6 183.607 571.737 215.9 483.632C248.16 395.619 346.07 350.174 434.089 382.436C522.107 414.697 567.491 512.561 535.197 600.665C502.904 688.77 405.027 734.123 317.008 701.861Z" fill="url(#paint13_linear_415_10)"/>
<path d="M382.343 385.941C305.188 357.661 219.393 397.407 191.119 474.545C162.846 551.682 202.633 637.458 279.787 665.738C356.942 694.018 442.737 654.272 471.011 577.134C499.192 499.963 459.497 414.221 382.343 385.941ZM281.071 662.236C205.942 634.699 167.204 551.189 194.768 475.987C222.333 400.784 305.863 362.09 380.991 389.627C456.12 417.165 494.858 500.674 467.294 575.877C439.764 650.987 356.2 689.773 281.071 662.236Z" fill="url(#paint14_linear_415_10)"/>
<path d="M340.402 397.126C276.137 373.571 204.688 406.657 181.11 470.985C157.566 535.22 190.674 606.735 254.939 630.29C319.203 653.845 390.652 620.759 414.23 556.431C437.716 492.07 404.666 420.681 340.402 397.126ZM256.29 626.603C194.051 603.791 161.992 534.542 184.793 472.334C207.628 410.034 276.811 377.999 339.05 400.812C401.289 423.625 433.349 492.873 410.547 555.081C387.746 617.289 318.529 649.416 256.29 626.603Z" fill="url(#paint15_linear_415_10)"/>
<path d="M298.493 408.212C247.118 389.381 189.982 415.9 171.167 467.233C152.318 518.659 178.815 575.728 230.19 594.559C281.565 613.389 338.7 586.87 357.516 535.537C376.331 484.204 349.867 427.042 298.493 408.212ZM231.507 590.964C182.158 572.876 156.652 517.947 174.758 468.55C192.864 419.152 247.734 393.684 297.175 411.806C346.524 429.894 372.031 484.823 353.925 534.221C335.727 583.584 280.857 609.053 231.507 590.964Z" fill="url(#paint16_linear_415_10)"/>
<path d="M267.673 423.468C229.188 409.361 186.399 429.222 172.279 467.745C158.159 506.267 177.977 549.076 216.462 563.182C254.948 577.288 297.736 557.427 311.856 518.905C325.976 480.382 306.158 437.574 267.673 423.468ZM217.814 559.495C181.354 546.132 162.493 505.556 175.87 469.061C189.246 432.566 229.77 413.757 266.321 427.154C302.781 440.518 321.642 481.093 308.266 517.589C294.889 554.084 254.273 572.859 217.814 559.495Z" fill="url(#paint17_linear_415_10)"/>
<path d="M247.97 442.801C222.375 433.42 193.933 446.621 184.542 472.241C175.152 497.861 188.325 526.316 213.921 535.697C239.516 545.079 267.958 531.878 277.348 506.258C286.739 480.637 273.566 452.183 247.97 442.801ZM215.272 532.011C191.702 523.372 179.486 497.15 188.167 473.465C196.814 449.872 223.117 437.664 246.687 446.303C270.256 454.942 282.473 481.164 273.791 504.849C265.11 528.534 238.842 540.65 215.272 532.011Z" fill="url(#paint18_linear_415_10)"/>
</g>
<defs>
<linearGradient id="paint0_linear_415_10" x1="965.183" y1="889.486" x2="1090.72" y2="822.469" gradientUnits="userSpaceOnUse">
<stop stop-color="#D8AE5E" stop-opacity="0.75"/>
<stop offset="0.195" stop-color="#F2D7A5" stop-opacity="0.5"/>
<stop offset="1" stop-color="#F2D7A5" stop-opacity="0.05"/>
</linearGradient>
<linearGradient id="paint1_linear_415_10" x1="916.25" y1="865.035" x2="1035.5" y2="801.393" gradientUnits="userSpaceOnUse">
<stop stop-color="#D8AE5E" stop-opacity="0.75"/>
<stop offset="0.195" stop-color="#F2D7A5" stop-opacity="0.5"/>
<stop offset="1" stop-color="#F2D7A5" stop-opacity="0.05"/>
</linearGradient>
<linearGradient id="paint2_linear_415_10" x1="867.314" y1="840.476" x2="980.288" y2="780.173" gradientUnits="userSpaceOnUse">
<stop stop-color="#D8AE5E" stop-opacity="0.75"/>
<stop offset="0.195" stop-color="#F2D7A5" stop-opacity="0.5"/>
<stop offset="1" stop-color="#F2D7A5" stop-opacity="0.05"/>
</linearGradient>
<linearGradient id="paint3_linear_415_10" x1="818.348" y1="816.009" x2="925.046" y2="759.044" gradientUnits="userSpaceOnUse">
<stop stop-color="#D8AE5E" stop-opacity="0.75"/>
<stop offset="0.195" stop-color="#F2D7A5" stop-opacity="0.5"/>
<stop offset="1" stop-color="#F2D7A5" stop-opacity="0.05"/>
</linearGradient>
<linearGradient id="paint4_linear_415_10" x1="769.47" y1="791.409" x2="869.874" y2="737.816" gradientUnits="userSpaceOnUse">
<stop stop-color="#D8AE5E" stop-opacity="0.75"/>
<stop offset="0.195" stop-color="#F2D7A5" stop-opacity="0.5"/>
<stop offset="1" stop-color="#F2D7A5" stop-opacity="0.05"/>
</linearGradient>
<linearGradient id="paint5_linear_415_10" x1="720.479" y1="766.998" x2="814.618" y2="716.747" gradientUnits="userSpaceOnUse">
<stop stop-color="#D8AE5E" stop-opacity="0.75"/>
<stop offset="0.195" stop-color="#F2D7A5" stop-opacity="0.5"/>
<stop offset="1" stop-color="#F2D7A5" stop-opacity="0.05"/>
</linearGradient>
<linearGradient id="paint6_linear_415_10" x1="671.55" y1="742.483" x2="759.399" y2="695.586" gradientUnits="userSpaceOnUse">
<stop stop-color="#D8AE5E" stop-opacity="0.75"/>
<stop offset="0.195" stop-color="#F2D7A5" stop-opacity="0.5"/>
<stop offset="1" stop-color="#F2D7A5" stop-opacity="0.05"/>
</linearGradient>
<linearGradient id="paint7_linear_415_10" x1="622.655" y1="717.872" x2="704.215" y2="674.329" gradientUnits="userSpaceOnUse">
<stop stop-color="#D8AE5E" stop-opacity="0.75"/>
<stop offset="0.195" stop-color="#F2D7A5" stop-opacity="0.5"/>
<stop offset="1" stop-color="#F2D7A5" stop-opacity="0.05"/>
</linearGradient>
<linearGradient id="paint8_linear_415_10" x1="573.683" y1="693.471" x2="648.973" y2="653.288" gradientUnits="userSpaceOnUse">
<stop stop-color="#D8AE5E" stop-opacity="0.75"/>
<stop offset="0.195" stop-color="#F2D7A5" stop-opacity="0.5"/>
<stop offset="1" stop-color="#F2D7A5" stop-opacity="0.05"/>
</linearGradient>
<linearGradient id="paint9_linear_415_10" x1="524.77" y1="668.858" x2="593.775" y2="632.011" gradientUnits="userSpaceOnUse">
<stop stop-color="#D8AE5E" stop-opacity="0.75"/>
<stop offset="0.195" stop-color="#F2D7A5" stop-opacity="0.5"/>
<stop offset="1" stop-color="#F2D7A5" stop-opacity="0.05"/>
</linearGradient>
<linearGradient id="paint10_linear_415_10" x1="475.797" y1="644.452" x2="538.531" y2="610.964" gradientUnits="userSpaceOnUse">
<stop stop-color="#D8AE5E" stop-opacity="0.75"/>
<stop offset="0.195" stop-color="#F2D7A5" stop-opacity="0.5"/>
<stop offset="1" stop-color="#F2D7A5" stop-opacity="0.05"/>
</linearGradient>
<linearGradient id="paint11_linear_415_10" x1="426.808" y1="620.105" x2="483.252" y2="589.972" gradientUnits="userSpaceOnUse">
<stop stop-color="#D8AE5E" stop-opacity="0.75"/>
<stop offset="0.195" stop-color="#F2D7A5" stop-opacity="0.5"/>
<stop offset="1" stop-color="#F2D7A5" stop-opacity="0.05"/>
</linearGradient>
<linearGradient id="paint12_linear_415_10" x1="377.91" y1="595.495" x2="428.065" y2="568.716" gradientUnits="userSpaceOnUse">
<stop stop-color="#D8AE5E" stop-opacity="0.75"/>
<stop offset="0.195" stop-color="#F2D7A5" stop-opacity="0.5"/>
<stop offset="1" stop-color="#F2D7A5" stop-opacity="0.05"/>
</linearGradient>
<linearGradient id="paint13_linear_415_10" x1="328.938" y1="571.093" x2="372.824" y2="547.673" gradientUnits="userSpaceOnUse">
<stop stop-color="#D8AE5E" stop-opacity="0.75"/>
<stop offset="0.195" stop-color="#F2D7A5" stop-opacity="0.5"/>
<stop offset="1" stop-color="#F2D7A5" stop-opacity="0.05"/>
</linearGradient>
<linearGradient id="paint14_linear_415_10" x1="291.144" y1="550.548" x2="328.744" y2="530.465" gradientUnits="userSpaceOnUse">
<stop stop-color="#D8AE5E" stop-opacity="0.75"/>
<stop offset="0.195" stop-color="#F2D7A5" stop-opacity="0.5"/>
<stop offset="1" stop-color="#F2D7A5" stop-opacity="0.05"/>
</linearGradient>
<linearGradient id="paint15_linear_415_10" x1="264.415" y1="534.303" x2="295.745" y2="517.579" gradientUnits="userSpaceOnUse">
<stop stop-color="#D8AE5E" stop-opacity="0.75"/>
<stop offset="0.195" stop-color="#F2D7A5" stop-opacity="0.5"/>
<stop offset="1" stop-color="#F2D7A5" stop-opacity="0.05"/>
</linearGradient>
<linearGradient id="paint16_linear_415_10" x1="237.76" y1="517.844" x2="262.8" y2="504.474" gradientUnits="userSpaceOnUse">
<stop stop-color="#D8AE5E" stop-opacity="0.75"/>
<stop offset="0.195" stop-color="#F2D7A5" stop-opacity="0.5"/>
<stop offset="1" stop-color="#F2D7A5" stop-opacity="0.05"/>
</linearGradient>
<linearGradient id="paint17_linear_415_10" x1="222.151" y1="505.669" x2="240.922" y2="495.659" gradientUnits="userSpaceOnUse">
<stop stop-color="#D8AE5E" stop-opacity="0.75"/>
<stop offset="0.195" stop-color="#F2D7A5" stop-opacity="0.5"/>
<stop offset="1" stop-color="#F2D7A5" stop-opacity="0.05"/>
</linearGradient>
<linearGradient id="paint18_linear_415_10" x1="217.703" y1="497.457" x2="230.184" y2="490.801" gradientUnits="userSpaceOnUse">
<stop stop-color="#D8AE5E" stop-opacity="0.75"/>
<stop offset="0.195" stop-color="#F2D7A5" stop-opacity="0.5"/>
<stop offset="1" stop-color="#F2D7A5" stop-opacity="0.05"/>
</linearGradient>
</defs>
</svg>
