<svg width="24" height="24" viewBox="0 0 24 24" fill="none" xmlns="http://www.w3.org/2000/svg">
<path d="M16.62 6.21011C16.5165 6.12815 16.3978 6.0675 16.2707 6.03167C16.1436 5.99584 16.0107 5.98553 15.8796 6.00133C15.7485 6.01714 15.6218 6.05874 15.5069 6.12376C15.392 6.18877 15.2911 6.27589 15.21 6.38011L8.21 15.3801L4.78 11.2001C4.69954 11.093 4.59839 11.0032 4.48255 10.9359C4.36671 10.8687 4.23853 10.8254 4.10563 10.8086C3.97274 10.7918 3.83783 10.8019 3.70891 10.8383C3.57999 10.8747 3.4597 10.9366 3.35517 11.0204C3.25064 11.1041 3.164 11.208 3.10039 11.3259C3.03679 11.4438 2.99752 11.5733 2.98491 11.7066C2.9723 11.84 2.98662 11.9745 3.027 12.1022C3.06738 12.2299 3.13302 12.3482 3.22 12.4501L7.39 17.6301C7.48412 17.7461 7.60303 17.8396 7.73801 17.9036C7.87299 17.9676 8.0206 18.0006 8.17 18.0001C8.32858 18.0072 8.48656 17.9764 8.63089 17.9103C8.77522 17.8443 8.90174 17.7448 9 17.6201L16.83 7.62011C16.9098 7.51413 16.9678 7.39333 17.0005 7.26474C17.0331 7.13616 17.0399 7.00235 17.0204 6.87112C17.0008 6.73989 16.9553 6.61386 16.8866 6.50038C16.8179 6.38689 16.7272 6.28822 16.62 6.21011ZM21.62 6.21011C21.5165 6.12815 21.3978 6.0675 21.2707 6.03167C21.1436 5.99584 21.0107 5.98553 20.8796 6.00133C20.7485 6.01714 20.6218 6.05874 20.5069 6.12376C20.392 6.18877 20.2911 6.27589 20.21 6.38011L13.21 15.3801L12.6 14.6301L11.34 16.2501L12.44 17.6201C12.5341 17.7361 12.653 17.8296 12.788 17.8936C12.923 17.9576 13.0706 17.9906 13.22 17.9901C13.3702 17.9894 13.5183 17.9549 13.6534 17.8891C13.7884 17.8233 13.9069 17.728 14 17.6101L21.83 7.61011C21.9083 7.50444 21.9649 7.38438 21.9967 7.25679C22.0285 7.1292 22.0349 6.99659 22.0154 6.86655C21.9959 6.73651 21.9509 6.6116 21.8831 6.49896C21.8152 6.38631 21.7258 6.28816 21.62 6.21011Z" fill="url(#paint0_linear_953_6378)"/>
<path d="M8.71 13.0599L10 11.4399L9.8 11.1999C9.72105 11.0905 9.62079 10.9982 9.50524 10.9286C9.3897 10.859 9.26127 10.8135 9.12767 10.7948C8.99407 10.7761 8.85808 10.7846 8.72787 10.8199C8.59766 10.8551 8.47593 10.9164 8.37 10.9999C8.26727 11.0824 8.18187 11.1844 8.11869 11.3001C8.05552 11.4157 8.01582 11.5427 8.00188 11.6737C7.98794 11.8047 8.00004 11.9372 8.03747 12.0636C8.0749 12.1899 8.13693 12.3076 8.22 12.4099L8.71 13.0599Z" fill="url(#paint1_linear_953_6378)"/>
<defs>
<linearGradient id="paint0_linear_953_6378" x1="4.22375" y1="5.00468" x2="18.3031" y2="18.8806" gradientUnits="userSpaceOnUse">
<stop stop-color="#D8AE5E"/>
<stop offset="1" stop-color="#F2D7A5"/>
</linearGradient>
<linearGradient id="paint1_linear_953_6378" x1="8.12707" y1="10.5977" x2="10.374" y2="11.8274" gradientUnits="userSpaceOnUse">
<stop stop-color="#D8AE5E"/>
<stop offset="1" stop-color="#F2D7A5"/>
</linearGradient>
</defs>
</svg>
